<svg xmlns="http://www.w3.org/2000/svg" viewBox="-18940 8965 1000 1000"><defs><style>.a{fill:#f0a85f;stroke:#707070;}.b{fill:#fff;}.c{stroke:none;}.d{fill:none;}</style></defs><g class="a" transform="translate(-18940 8965)"><circle class="c" cx="500" cy="500" r="500"/><circle class="d" cx="500" cy="500" r="499.5"/></g><g transform="translate(-18751.965 9151.813)"><g transform="translate(34.778)"><path class="b" d="M602.563,531.534,357.428,286.4,71.03,0H48.648l-4.57,11.613c-12.062,30.652-17.216,62-14.9,90.658,2.637,32.664,15.046,60.944,35.888,81.785L288.641,407.634l29.49-29.49,206.7,231.127c20.562,20.562,55.952,21.783,77.735,0A55.029,55.029,0,0,0,602.563,531.534Z" transform="translate(-28.636)"/></g><g transform="translate(0 355.851)"><path class="b" d="M191.331,291.442,16.226,466.547a55.03,55.03,0,0,0,0,77.735c20.359,20.359,55.579,22.156,77.735,0L269.068,369.176Z" transform="translate(-0.153 -291.442)"/></g><g transform="translate(334.8 0.441)"><path class="b" d="M537.967,104.009l-99.33,99.328-25.913-25.912,99.33-99.33L486.142,52.184l-99.328,99.328L360.9,125.6l99.33-99.328L434.32.361l-129.56,129.56a91.457,91.457,0,0,0-26.652,59.261,52.788,52.788,0,0,1-3.753,16.542l84.162,84.162a52.729,52.729,0,0,1,16.542-3.755,91.438,91.438,0,0,0,59.261-26.651L563.88,129.923Z" transform="translate(-274.354 -0.361)"/></g></g></svg>